<svg xmlns="http://www.w3.org/2000/svg" xmlns:xlink="http://www.w3.org/1999/xlink" viewBox="0 0 400 400"><defs><linearGradient id="a" x1="8.76" y1="389.73" x2="389.74" y2="11.75" gradientUnits="userSpaceOnUse"><stop offset="0" stop-color="#007dc5"/><stop offset="1" stop-color="#034ea2"/></linearGradient></defs><title>codeurs-en-seine-avatar-icon</title><rect width="400" height="400" style="fill:url(#a)"/><path d="M249.1,215.57l11.58-33.84a36.91,36.91,0,1,1,23.9-69.81l11.58-33.86A72.68,72.68,0,1,0,249.1,215.57Z" style="fill:#fff"/><path d="M270.43,184.66l-11.66,34.05a37.25,37.25,0,0,1-24.08,70.37l-11.56,33.78a73.06,73.06,0,0,0,47.3-138.2Z" style="fill:#fff"/><path d="M217.81,279.07a34.1,34.1,0,0,1-6.34-9.08c-3.37-7.05-3.54-14.5-3.6-22a99.39,99.39,0,0,0-.72-13.8,66.88,66.88,0,0,0-133,10c0,39.42,20.41,61.11,63.12,76.8l11.49-33.42C120.47,276,110,261.23,110,244.11a30.88,30.88,0,0,1,31-31c9.22.08,18.15,3.8,23.91,11.13,8,10.19,6.25,22.37,7.15,34.39a73.1,73.1,0,0,0,41.62,60.55L225.34,285C225.3,285.11,218.4,279.67,217.81,279.07Z" style="fill:#fff"/></svg>